<?xml version="1.0" encoding="UTF-8"?>
<svg version="1.1" xmlns="http://www.w3.org/2000/svg" width="256" height="256">
<path d="M0 0 C5.5325048 2.31338961 10.79857293 5.02296337 16 8 C17.01835938 8.57878906 18.03671875 9.15757813 19.0859375 9.75390625 C25.76069182 13.78306467 31.37857646 18.62339557 37 24 C37.67675781 24.60199219 38.35351562 25.20398438 39.05078125 25.82421875 C52.85613968 38.57826732 62.20466362 57.75409716 66 76 C66.09765625 78.8984375 66.09765625 78.8984375 66 81 C66.66 81 67.32 81 68 81 C68.061875 79.824375 68.12375 78.64875 68.1875 77.4375 C70.9721238 53.39189717 87.23662539 30.28384172 105.80664062 15.56835938 C124.14690688 1.91570111 144.29511376 -5.34232074 167.1875 -5.625 C168.90694824 -5.65968384 168.90694824 -5.65968384 170.66113281 -5.69506836 C179.0753397 -5.6164714 183.94261815 -3.77251823 190.05859375 1.9140625 C190.51363281 2.47867187 190.96867188 3.04328125 191.4375 3.625 C191.91058594 4.19476563 192.38367188 4.76453125 192.87109375 5.3515625 C198.56964221 13.67262634 195.95893432 32.41771186 194.28125 41.921875 C193.44730583 45.70588004 192.29676684 49.34779437 191 53 C190.63777344 54.03511719 190.27554688 55.07023437 189.90234375 56.13671875 C179.39610379 83.38171391 159.30327718 103.49328401 133.25537109 116.00146484 C120.2576772 121.75601865 106.06757462 124.11055847 91.9375 124.25 C91.21046875 124.25942627 90.4834375 124.26885254 89.734375 124.27856445 C85.68831235 124.25341889 83.72187581 123.86093791 80 122 C80 141.47 80 160.94 80 181 C83.96 181.33 87.92 181.66 92 182 C95.32929344 182.65031335 98.54133284 183.3349879 101.8125 184.1875 C102.67141846 184.40889648 103.53033691 184.63029297 104.4152832 184.85839844 C123.45284159 189.93885972 147.35989792 199.15144547 159 216 C162.00702263 222.01404525 162.16942175 229.36121893 160.125 235.72265625 C156.91319236 242.72735514 152.20481484 248.02427803 145 251 C142.09384537 251.26006222 142.09384537 251.26006222 138.65045166 251.27415466 C136.69063354 251.28911736 136.69063354 251.28911736 134.69122314 251.30438232 C133.24499524 251.3052781 131.79876717 251.30594168 130.35253906 251.30639648 C128.8279988 251.31401888 127.30346239 251.32244651 125.77893066 251.33161926 C121.63825914 251.35356609 117.49766148 251.36236365 113.35693836 251.36744571 C110.76848539 251.37108972 108.18005174 251.37733009 105.59160614 251.3844471 C96.55683035 251.40894434 87.52211198 251.42199363 78.48730469 251.42553711 C70.07345399 251.42917037 61.65996852 251.45904986 53.24622941 251.50094169 C46.01719614 251.53566948 38.78828373 251.551086 31.55916762 251.55178314 C27.24400679 251.55257526 22.92921782 251.56128294 18.61414337 251.58978081 C14.55265568 251.61600365 10.49184699 251.61814361 6.43031311 251.60212517 C4.943652 251.60031387 3.45695148 251.60697266 1.97037506 251.62294388 C-6.23188184 251.70565881 -12.70090164 251.69020238 -19 246 C-24.5178118 240.4821882 -27.07716618 234.80967716 -27.4375 227.0625 C-27.18487147 220.19942497 -24.75069741 214.61595586 -20.1875 209.5 C-7.66857021 197.99109003 10.37481733 190.36264715 26.5 185.6875 C27.68940186 185.34199097 27.68940186 185.34199097 28.90283203 184.98950195 C37.21965324 182.72271482 45.4166773 181.51470401 54 180 C54 160.86 54 141.72 54 122 C52.02 122.99 52.02 122.99 50 124 C47.40822935 124.22423184 44.96523245 124.333144 42.375 124.3125 C41.62935791 124.30686035 40.88371582 124.3012207 40.11547852 124.29541016 C15.37235211 123.77352318 -8.69945784 114.80662035 -27 98 C-27.4856543 97.56204102 -27.97130859 97.12408203 -28.47167969 96.67285156 C-45.60558059 81.07957116 -59.7518015 57.69771356 -61.17700195 34.06494141 C-61.24336692 30.58487881 -61.28478831 27.10558869 -61.3125 23.625 C-61.34150391 22.4184375 -61.37050781 21.211875 -61.40039062 19.96875 C-61.45850996 11.83204323 -60.8476978 7.15990134 -55.21875 1.07421875 C-54.6515625 0.61660156 -54.084375 0.15898438 -53.5 -0.3125 C-52.9328125 -0.78300781 -52.365625 -1.25351562 -51.78125 -1.73828125 C-38.85657614 -10.89325856 -13.90820537 -5.45407369 0 0 Z M66 108 C66 108.66 66 109.32 66 110 C66.66 110 67.32 110 68 110 C68 109.34 68 108.68 68 108 C67.34 108 66.68 108 66 108 Z " fill="#7EC748" transform="translate(61,5)"/>
<path d="M0 0 C1.19420563 0.00081573 1.19420563 0.00081573 2.41253662 0.00164795 C14.85297355 0.04069515 26.50325334 0.85715699 38.5 4.375 C39.2317041 4.57335449 39.9634082 4.77170898 40.71728516 4.97607422 C50.18024179 7.56925854 58.85239791 11.3088635 67.5625 15.8125 C68.8472522 16.47584351 68.8472522 16.47584351 70.15795898 17.15258789 C79.45251235 22.14311645 89.03224404 28.43948808 93.875 38.125 C95.44111897 46.26881864 95.16592419 52.81199201 91.0625 60.14453125 C87.84216862 64.74155429 83.69709831 68.22850214 78.5 70.375 C75.59384537 70.63506222 75.59384537 70.63506222 72.15045166 70.64915466 C70.19063354 70.66411736 70.19063354 70.66411736 68.19122314 70.67938232 C66.74499524 70.6802781 65.29876717 70.68094168 63.85253906 70.68139648 C62.3279988 70.68901888 60.80346239 70.69744651 59.27893066 70.70661926 C55.13825914 70.72856609 50.99766148 70.73736365 46.85693836 70.74244571 C44.26848539 70.74608972 41.68005174 70.75233009 39.09160614 70.7594471 C30.05683035 70.78394434 21.02211198 70.79699363 11.98730469 70.80053711 C3.57345399 70.80417037 -4.84003148 70.83404986 -13.25377059 70.87594169 C-20.48280386 70.91066948 -27.71171627 70.926086 -34.94083238 70.92678314 C-39.25599321 70.92757526 -43.57078218 70.93628294 -47.88585663 70.96478081 C-51.94734432 70.99100365 -56.00815301 70.99314361 -60.06968689 70.97712517 C-61.556348 70.97531387 -63.04304852 70.98197266 -64.52962494 70.99794388 C-72.73188184 71.08065881 -79.20090164 71.06520238 -85.5 65.375 C-91.0178118 59.8571882 -93.57716618 54.18467716 -93.9375 46.4375 C-93.68487147 39.57442497 -91.25069741 33.99095586 -86.6875 28.875 C-64.03343223 8.04864895 -29.80419334 -0.07658564 0 0 Z " fill="#4D2100" transform="translate(127.5,185.625)"/>
<path d="M0 0 C1.71944824 -0.03468384 1.71944824 -0.03468384 3.47363281 -0.07006836 C11.8878397 0.0085286 16.75511815 1.85248177 22.87109375 7.5390625 C23.32613281 8.10367187 23.78117187 8.66828125 24.25 9.25 C24.72308594 9.81976563 25.19617188 10.38953125 25.68359375 10.9765625 C31.38214221 19.29762634 28.77143432 38.04271186 27.09375 47.546875 C26.25980583 51.33088004 25.10926684 54.97279437 23.8125 58.625 C23.45027344 59.66011719 23.08804688 60.69523437 22.71484375 61.76171875 C12.20860379 89.00671391 -7.88422282 109.11828401 -33.93212891 121.62646484 C-46.95235276 127.39099348 -61.15892952 129.73615168 -75.3125 129.875 C-76.41561523 129.8891394 -76.41561523 129.8891394 -77.54101562 129.90356445 C-81.2960614 129.88033646 -82.98699384 129.75867077 -86.1875 127.625 C-81.82612924 117.92465975 -72.45277335 110.07730132 -65.1875 102.4375 C-64.72053963 101.94507057 -64.25357925 101.45264114 -63.77246857 100.94528961 C-42.73225587 78.88338295 -42.73225587 78.88338295 -27.078125 78.32299805 C-20.66115968 78.45728624 -14.4418267 79.16063904 -8.1875 80.625 C-8.02072718 77.20843976 -8.02072718 77.20843976 -8.1875 73.625 C-10.62664492 71.18585508 -11.40196431 71.33837477 -14.7578125 71.2109375 C-15.65371094 71.17226562 -16.54960937 71.13359375 -17.47265625 71.09375 C-18.40980469 71.0628125 -19.34695312 71.031875 -20.3125 71 C-21.25738281 70.96132812 -22.20226562 70.92265625 -23.17578125 70.8828125 C-25.51282375 70.78838654 -27.84985501 70.70281606 -30.1875 70.625 C-29.29448344 69.56013145 -28.3979053 68.49824959 -27.5 67.4375 C-27.00113281 66.84582031 -26.50226563 66.25414063 -25.98828125 65.64453125 C-25.39402344 64.97808594 -24.79976563 64.31164062 -24.1875 63.625 C-23.45764893 62.73594971 -22.72779785 61.84689941 -21.97583008 60.9309082 C-18.44190066 58.00840025 -15.65808805 57.89388556 -11.26171875 57.91796875 C-10.51412796 57.90284744 -9.76653717 57.88772614 -8.99629211 57.87214661 C-6.62221913 57.82935919 -4.24941969 57.8204412 -1.875 57.8125 C-0.25973198 57.78934842 1.35550591 57.76398169 2.97070312 57.73632812 C6.91808086 57.67356543 10.86466754 57.64116016 14.8125 57.625 C14.8125 54.985 14.8125 52.345 14.8125 49.625 C12.51941037 48.47845518 11.01340344 48.42770883 8.4609375 48.30859375 C7.18476563 48.24575195 7.18476563 48.24575195 5.8828125 48.18164062 C4.99335938 48.14232422 4.10390625 48.10300781 3.1875 48.0625 C2.2903125 48.01931641 1.393125 47.97613281 0.46875 47.93164062 C-1.74984283 47.82543139 -3.9685488 47.72338806 -6.1875 47.625 C-4.70778789 44.17606156 -2.76390468 41.98017546 -0.08984375 39.3671875 C0.71130859 38.57699219 1.51246094 37.78679688 2.33789062 36.97265625 C3.59375977 35.74869141 3.59375977 35.74869141 4.875 34.5 C6.53472622 32.87461294 8.19238747 31.24711373 9.84765625 29.6171875 C10.5837915 28.89901855 11.31992676 28.18084961 12.07836914 27.44091797 C14.5114181 24.89311871 14.78943154 23.83261618 15.1875 20.25 C15.18335134 16.54961025 15.18335134 16.54961025 12.6640625 14.41796875 C9.34491644 12.33099883 7.69156424 12.17188392 3.8125 12.3125 C2.67425781 12.35117188 1.53601563 12.38984375 0.36328125 12.4296875 C-0.80847656 12.49414062 -1.98023438 12.55859375 -3.1875 12.625 C-4.32832031 12.66882812 -5.46914062 12.71265625 -6.64453125 12.7578125 C-13.12886873 13.10505292 -18.26519124 13.97017193 -24.1875 16.625 C-24.8371875 16.851875 -25.486875 17.07875 -26.15625 17.3125 C-29.44914656 18.50010204 -30.94397726 19.16971835 -32.625 22.3125 C-32.810625 23.075625 -32.99625 23.83875 -33.1875 24.625 C-37.1475 25.12 -37.1475 25.12 -41.1875 25.625 C-41.10258301 26.53975098 -41.01766602 27.45450195 -40.93017578 28.39697266 C-38.814369 56.0900693 -38.814369 56.0900693 -45.69943237 65.12954712 C-51.06659091 71.38235555 -57.44326839 76.91057057 -64.1875 81.625 C-64.5175 81.625 -64.8475 81.625 -65.1875 81.625 C-66.85515261 61.15420783 -66.85515261 61.15420783 -61.0625 54.1875 C-59.48872126 52.61372126 -57.86670081 51.08576818 -56.1875 49.625 C-51.85084648 45.92054564 -51.85084648 45.92054564 -49.6875 40.875 C-50.01812856 38.43645444 -50.01812856 38.43645444 -52.1875 36.625 C-54.87589385 36.35508094 -57.47891936 36.53762643 -60.1875 36.625 C-60.1875 37.285 -60.1875 37.945 -60.1875 38.625 C-61.33906395 39.81043348 -62.49710358 40.99028583 -63.6875 42.13671875 C-69.83356659 48.2347692 -74.14641211 54.08848897 -76.1875 62.625 C-76.23543977 66.06879052 -76.23543977 66.06879052 -75.8984375 69.60546875 C-74.65244767 92.46497981 -74.65244767 92.46497981 -81.69921875 101.17578125 C-86.4511795 106.15527051 -91.62993808 110.56958259 -97.1875 114.625 C-98.1775 114.295 -99.1675 113.965 -100.1875 113.625 C-101.03783366 90.29446083 -98.83626913 71.97752853 -87.1875 51.625 C-86.60871094 50.60664062 -86.02992188 49.58828125 -85.43359375 48.5390625 C-81.40443533 41.86430818 -76.56410443 36.24642354 -71.1875 30.625 C-70.58550781 29.94824219 -69.98351562 29.27148438 -69.36328125 28.57421875 C-51.80751081 9.57133492 -25.2795992 0.31215699 0 0 Z " fill="#226700" transform="translate(228.1875,-0.625)"/>
<path d="M0 0 C3.0625 0.3125 3.0625 0.3125 4.9375 1.5 C6.44582602 3.93008081 6.42273622 5.50265752 6.0625 8.3125 C5.4025 8.9725 4.7425 9.6325 4.0625 10.3125 C3.45806724 13.67045977 3.31724301 16.11589018 5.171875 19.09375 C7.04219431 21.27887553 9.01468431 23.29110773 11.0625 25.3125 C12.77766345 27.01099114 14.49199509 28.71029369 16.2043457 30.41162109 C17.39397852 31.58815259 18.5903856 32.75787662 19.79370117 33.92041016 C21.25333882 35.34784835 22.66267006 36.82636475 24.0625 38.3125 C24.0625 38.9725 24.0625 39.6325 24.0625 40.3125 C14.79254484 41.53940583 14.79254484 41.53940583 10.55078125 38.53125 C8.59301437 36.53481986 6.7803165 34.51760543 5.0625 32.3125 C5.07410156 33.02277344 5.08570313 33.73304687 5.09765625 34.46484375 C5.11119141 35.84349609 5.11119141 35.84349609 5.125 37.25 C5.13660156 38.16652344 5.14820313 39.08304688 5.16015625 40.02734375 C5.0625 42.3125 5.0625 42.3125 4.0625 43.3125 C3.99101801 44.66493917 3.97850546 46.02084367 4 47.375 C4.020625 48.674375 4.04125 49.97375 4.0625 51.3125 C5.03485596 51.28518799 6.00721191 51.25787598 7.0090332 51.22973633 C10.66812264 51.14192366 14.32458654 51.1283444 17.98461914 51.13549805 C19.55872352 51.12858491 21.1328799 51.10238027 22.70629883 51.05541992 C37.16301422 50.64631096 37.16301422 50.64631096 43.20463562 56.28190613 C49.0625 62.45593307 49.0625 62.45593307 49.0625 64.3125 C37.8425 64.3125 26.6225 64.3125 15.0625 64.3125 C22.21190758 76.34481265 22.21190758 76.34481265 27.0625 79.3125 C27.0625 78.6525 27.0625 77.9925 27.0625 77.3125 C36.37671431 72.65539284 49.50334397 71.93721744 59.38562012 75.07446289 C77.10504176 83.2695641 92.58197615 104.8669529 105.0625 119.3125 C104.0625 122.3125 104.0625 122.3125 102.0625 123.3125 C75.41655186 124.96201108 48.13667973 117.50514736 27.7421875 99.7734375 C26.85789063 98.96132812 25.97359375 98.14921875 25.0625 97.3125 C24.5768457 96.87454102 24.09119141 96.43658203 23.59082031 95.98535156 C6.45691941 80.39207116 -7.6893015 57.01021356 -9.11450195 33.37744141 C-9.18086692 29.89737881 -9.22228831 26.41808869 -9.25 22.9375 C-9.27900391 21.7309375 -9.30800781 20.524375 -9.33789062 19.28125 C-9.38715903 12.38367307 -9.1598192 7.8743676 -4.9375 2.3125 C-2.9375 0.3125 -2.9375 0.3125 0 0 Z " fill="#4EAA02" transform="translate(8.9375,5.6875)"/>
<path d="M0 0 C4.75421939 2.11083468 9.31298214 4.50797576 13.82568359 7.09082031 C14.84404297 7.66960938 15.86240234 8.24839844 16.91162109 8.84472656 C23.58637542 12.87388498 29.20426005 17.71421589 34.82568359 23.09082031 C35.50244141 23.6928125 36.17919922 24.29480469 36.87646484 24.91503906 C52.26792343 39.1344026 63.79326713 62.63515334 65.03173828 83.57470703 C65.23909506 91.41833631 65.11143323 99.25072954 64.82568359 107.09082031 C57.74685775 107.09082031 53.4579881 101.75793857 48.48974609 97.11669922 C40.50974127 88.54747311 40.03527122 80.53248156 40.39297485 69.36499023 C40.47742414 67.34346481 40.57068874 65.32263272 40.66943359 63.30175781 C41.2084984 51.72973395 37.36929975 45.5530318 29.82568359 37.09082031 C29.20951172 36.36894531 28.59333984 35.64707031 27.95849609 34.90332031 C24.43934716 31.02059741 24.43934716 31.02059741 19.51318359 29.52832031 C16.68786528 29.86380572 16.68786528 29.86380572 14.82568359 32.09082031 C14.3144501 34.49224451 14.3144501 34.49224451 14.82568359 37.09082031 C16.57143941 39.36765582 16.57143941 39.36765582 18.95068359 41.40332031 C29.21712452 50.75373199 29.21712452 50.75373199 30.30175781 56.70141602 C30.41385021 59.52190983 30.35228787 62.27253578 30.20068359 65.09082031 C30.17361328 66.05632812 30.14654297 67.02183594 30.11865234 68.01660156 C30.04853944 70.37706917 29.95036661 72.73271277 29.82568359 75.09082031 C28.84341797 74.23230469 27.86115234 73.37378906 26.84912109 72.48925781 C24.21471491 70.21052964 21.51622627 68.14520004 18.67724609 66.12988281 C12.59143296 61.41496432 7.64371263 57.05201508 6.03271484 49.25097656 C5.09068335 40.87232989 5.40906658 32.40173904 5.890625 24.00146484 C6.1582765 20.9626412 6.1582765 20.9626412 3.82568359 19.09082031 C2.83568359 18.98769531 1.84568359 18.88457031 0.82568359 18.77832031 C-0.16431641 18.55144531 -1.15431641 18.32457031 -2.17431641 18.09082031 C-2.48369141 17.30707031 -2.79306641 16.52332031 -3.11181641 15.71582031 C-3.97582199 12.76441289 -3.97582199 12.76441289 -7.29931641 11.46582031 C-8.58860228 11.00083197 -9.8803691 10.54267493 -11.17431641 10.09082031 C-12.37056641 9.55457031 -13.56681641 9.01832031 -14.79931641 8.46582031 C-23.92971715 5.1056921 -38.93738792 4.01184415 -48.17431641 7.09082031 C-48.50431641 5.11082031 -48.83431641 3.13082031 -49.17431641 1.09082031 C-51.48431641 0.76082031 -53.79431641 0.43082031 -56.17431641 0.09082031 C-43.69906456 -13.27552095 -15.19898583 -6.35538101 0 0 Z " fill="#6EC030" transform="translate(63.17431640625,5.9091796875)"/>
<path d="M0 0 C1.71944824 -0.03468384 1.71944824 -0.03468384 3.47363281 -0.07006836 C10.41843117 -0.00519712 15.52504981 0.86699016 20.8125 5.625 C20.8125 5.955 20.8125 6.285 20.8125 6.625 C18.5025 7.285 16.1925 7.945 13.8125 8.625 C13.4825 10.275 13.1525 11.925 12.8125 13.625 C11.8225 13.295 10.8325 12.965 9.8125 12.625 C-1.61785153 12.05848112 -13.61978896 11.88775022 -24.1875 16.625 C-24.8371875 16.851875 -25.486875 17.07875 -26.15625 17.3125 C-29.44914656 18.50010204 -30.94397726 19.16971835 -32.625 22.3125 C-32.810625 23.075625 -32.99625 23.83875 -33.1875 24.625 C-37.1475 25.12 -37.1475 25.12 -41.1875 25.625 C-41.10258301 26.53975098 -41.01766602 27.45450195 -40.93017578 28.39697266 C-38.814369 56.0900693 -38.814369 56.0900693 -45.69943237 65.12954712 C-51.06659091 71.38235555 -57.44326839 76.91057057 -64.1875 81.625 C-64.5175 81.625 -64.8475 81.625 -65.1875 81.625 C-66.85515261 61.15420783 -66.85515261 61.15420783 -61.0625 54.1875 C-59.48872126 52.61372126 -57.86670081 51.08576818 -56.1875 49.625 C-51.85084648 45.92054564 -51.85084648 45.92054564 -49.6875 40.875 C-50.01812856 38.43645444 -50.01812856 38.43645444 -52.1875 36.625 C-54.87589385 36.35508094 -57.47891936 36.53762643 -60.1875 36.625 C-60.1875 37.285 -60.1875 37.945 -60.1875 38.625 C-61.33906395 39.81043348 -62.49710358 40.99028583 -63.6875 42.13671875 C-69.83356659 48.2347692 -74.14641211 54.08848897 -76.1875 62.625 C-76.23543977 66.06879052 -76.23543977 66.06879052 -75.8984375 69.60546875 C-74.65244767 92.46497981 -74.65244767 92.46497981 -81.69921875 101.17578125 C-86.4511795 106.15527051 -91.62993808 110.56958259 -97.1875 114.625 C-98.1775 114.295 -99.1675 113.965 -100.1875 113.625 C-101.03783366 90.29446083 -98.83626913 71.97752853 -87.1875 51.625 C-86.60871094 50.60664062 -86.02992188 49.58828125 -85.43359375 48.5390625 C-81.40443533 41.86430818 -76.56410443 36.24642354 -71.1875 30.625 C-70.58550781 29.94824219 -69.98351562 29.27148438 -69.36328125 28.57421875 C-51.80751081 9.57133492 -25.2795992 0.31215699 0 0 Z " fill="#378900" transform="translate(228.1875,-0.625)"/>
<path d="M0 0 C1.39061846 0.01006283 2.78124408 0.01918277 4.171875 0.02734375 C7.53143819 0.05067405 10.89062175 0.0834077 14.25 0.125 C13.26 0.785 12.27 1.445 11.25 2.125 C12.013125 2.82625 12.77625 3.5275 13.5625 4.25 C18.55999761 9.59616023 19.93710587 14.14472799 19.73046875 21.3671875 C18.93637214 25.92517291 16.70581577 29.11004961 13.25 32.125 C8.5274867 35.0885482 4.4410469 35.50787578 -1 35.5625 C-13.297556 35.98305919 -24.81808536 38.52909887 -36.3125 42.875 C-43.34317822 45.50541541 -48.20247776 46.02691243 -55.4375 44.1875 C-60.02008324 41.33419346 -62.55498568 38.04432286 -64.75 33.125 C-65.95495749 27.19897955 -64.60156584 22.42076513 -61.75 17.125 C-55.24224679 7.41621738 -38.67115552 4.43558737 -27.75 2.125 C-26.90066895 1.94404785 -26.05133789 1.7630957 -25.17626953 1.57666016 C-16.76745778 -0.02805329 -8.53463859 -0.10894409 0 0 Z " fill="#68341B" transform="translate(125.75,185.875)"/>
<path d="M0 0 C-10.88025843 11.22627372 -28.66279345 21.79437989 -44.75 22.0625 C-45.8225 22.041875 -46.895 22.02125 -48 22 C-47.13761719 21.00871094 -46.27523437 20.01742187 -45.38671875 18.99609375 C-43.15933201 16.41793744 -41.09519509 13.78234955 -39.08203125 11.03515625 C-28.2700315 -2.60771919 -16.43251387 -1.74585388 0 0 Z " fill="#368700" transform="translate(213,93)"/>
<path d="M0 0 C21.5701689 -3.35077735 21.5701689 -3.35077735 30.33984375 2.06103516 C37.10572861 7.42038919 42.72513883 14.21766752 48 21 C37.87734717 23.89412941 25.73669189 17.79351663 16.85351562 13.05175781 C3.74067797 5.61101695 3.74067797 5.61101695 0 0 Z " fill="#6CBF2E" transform="translate(43,93)"/>
<path d="M0 0 C1.875 1.1875 1.875 1.1875 3 3 C3.32421875 5.34765625 3.32421875 5.34765625 3 8 C1.27734375 10.140625 1.27734375 10.140625 -1.0625 12.25 C-5.57534526 16.49864387 -9.33390371 21.01363752 -13 26 C-13.60328125 25.67257813 -14.2065625 25.34515625 -14.828125 25.0078125 C-17.37547299 23.82576973 -19.22412038 23.84578447 -22 24 C-22.58847195 20.72137058 -22.40608361 18.64353928 -20.6171875 15.80859375 C-18.80109198 13.48540663 -16.92155344 11.23649684 -15 9 C-14.50242188 8.36964844 -14.00484375 7.73929688 -13.4921875 7.08984375 C-12.38127722 5.68291247 -11.19732528 4.33416245 -10 3 C-9.34 3 -8.68 3 -8 3 C-8 2.34 -8 1.68 -8 1 C-5.20129973 -0.39935013 -3.09501208 -0.25265405 0 0 Z " fill="#9BDE77" transform="translate(176,35)"/>
<path d="M0 0 C2.81640625 2.16015625 2.81640625 2.16015625 5.5625 5.0625 C6.03921143 5.56547607 6.51592285 6.06845215 7.00708008 6.58666992 C15.81996832 16.01965156 15.81996832 16.01965156 16.3125 21.4375 C16.209375 22.283125 16.10625 23.12875 16 24 C9.375 25 9.375 25 6 25 C3.94921875 22.8046875 3.94921875 22.8046875 1.6875 19.875 C-0.9154098 16.55756595 -3.43536771 13.45431017 -6.5625 10.625 C-9 8 -9 8 -9.5625 5.3125 C-8.24253373 -0.11402801 -5.22781548 -0.63214214 0 0 Z " fill="#9DE179" transform="translate(86,35)"/>
<path d="M0 0 C10.80645161 0.80645161 10.80645161 0.80645161 15 5 C15.28792759 7.73531209 15.34443368 9.41243666 13.9375 11.8125 C10.92139458 13.66108074 8.4643099 13.2986474 5 13 C2.525 12.01 2.525 12.01 0 11 C0 7.37 0 3.74 0 0 Z " fill="#9CE078" transform="translate(46,15)"/>
<path d="M0 0 C0 3.63 0 7.26 0 11 C-4.68510114 12.87404046 -7.11476189 13.19157797 -12 13 C-12.33 12.01 -12.66 11.02 -13 10 C-13.66 10 -14.32 10 -15 10 C-15.36585366 5.48780488 -15.36585366 5.48780488 -13.8046875 3.40625 C-11.5396777 1.6413073 -9.75535039 1.29805007 -6.9375 0.8125 C-6.05964844 0.65394531 -5.18179688 0.49539063 -4.27734375 0.33203125 C-2 0 -2 0 0 0 Z " fill="#9ADE75" transform="translate(210,15)"/>
<path d="M0 0 C4.62 0 9.24 0 14 0 C13.01 1.485 13.01 1.485 12 3 C12 5.31 12 7.62 12 10 C23.22 10.33 34.44 10.66 46 11 C46 11.33 46 11.66 46 12 C34.78 12.33 23.56 12.66 12 13 C12 13.66 12 14.32 12 15 C7.96369732 13.47275034 6.21014954 10.96243269 3.75 7.5 C3.04359375 6.5203125 2.3371875 5.540625 1.609375 4.53125 C0 2 0 2 0 0 Z " fill="#6CBE2D" transform="translate(24,70)"/>
<path d="M0 0 C4.62 0 9.24 0 14 0 C11.4181495 5.66021072 8.64603789 10.75219392 4 15 C3.34 15 2.68 15 2 15 C2 14.34 2 13.68 2 13 C-9.22 12.67 -20.44 12.34 -32 12 C-32 11.67 -32 11.34 -32 11 C-20.78 10.67 -9.56 10.34 2 10 C2.64715023 3.36980013 2.64715023 3.36980013 0 0 Z " fill="#3A8A05" transform="translate(218,70)"/>
<path d="M0 0 C0.57394241 3.55844297 0.85064135 5.56220094 0 9 C-2.94129324 12.79065064 -6.29124419 15.96325807 -10 19 C-10.33 19 -10.66 19 -11 19 C-11 13.39 -11 7.78 -11 2 C-4 0 -4 0 0 0 Z " fill="#398B02" transform="translate(209,27)"/>
<path d="M0 0 C0.70125 0.144375 1.4025 0.28875 2.125 0.4375 C5.07293814 1.0142705 8.03703889 1.50617315 11 2 C11 7.61 11 13.22 11 19 C9.26581767 17.53261495 7.53448951 16.06159225 5.82421875 14.56640625 C4.44880721 13.38537835 3.01727897 12.26925872 1.5625 11.1875 C-0.90733198 7.72973523 -0.31639951 4.11319369 0 0 Z " fill="#6FC031" transform="translate(47,27)"/>
<path d="M0 0 C1.12588014 0.95729916 2.2506715 1.91587895 3.375 2.875 C4.00148438 3.40867188 4.62796875 3.94234375 5.2734375 4.4921875 C6.55836651 5.61432007 7.79371975 6.79371975 9 8 C11.89883083 8.24339551 11.89883083 8.24339551 15.125 8.125 C16.76855469 8.09792969 16.76855469 8.09792969 18.4453125 8.0703125 C19.28835937 8.04710937 20.13140625 8.02390625 21 8 C21 8.66 21 9.32 21 10 C19.74703125 10.03738281 18.4940625 10.07476562 17.203125 10.11328125 C15.55205379 10.17894885 13.90101345 10.24539593 12.25 10.3125 C11.0125 10.34633789 11.0125 10.34633789 9.75 10.38085938 C3.79314143 10.61548917 3.79314143 10.61548917 -1 14 C-0.835 12.989375 -0.67 11.97875 -0.5 10.9375 C-0.03014231 7.23737067 0.07599849 3.72392609 0 0 Z " fill="#6EBE30" transform="translate(13,37)"/>
<path d="M0 0 C4.29 0 8.58 0 13 0 C9.56530675 4.15358254 6.36729534 7.78875342 2 11 C1.77213542 9.01432292 1.54427083 7.02864583 1.31640625 5.04296875 C1.02829265 2.80603607 1.02829265 2.80603607 0 0 Z " fill="#99DE74" transform="translate(219,12)"/>
<path d="M0 0 C1.79158489 -0.02696365 3.58328473 -0.04637917 5.375 -0.0625 C6.37273438 -0.07410156 7.37046875 -0.08570313 8.3984375 -0.09765625 C11 0 11 0 13 1 C12.67 4.3 12.34 7.6 12 11 C7.81814579 7.47412292 3.80904125 3.92446674 0 0 Z " fill="#9DE079" transform="translate(23,12)"/>
<path d="M0 0 C0.33 0 0.66 0 1 0 C0.67 3.63 0.34 7.26 0 11 C-6.6 10.67 -13.2 10.34 -20 10 C-20 9.67 -20 9.34 -20 9 C-18.83984375 9.0309375 -18.83984375 9.0309375 -17.65625 9.0625 C-11.44000308 8.939406 -7.75088865 8.52140959 -3.3125 3.9375 C-2.20253423 2.62990057 -1.09655288 1.31886772 0 0 Z " fill="#3B8C06" transform="translate(242,37)"/>
<path d="M0 0 C0.33 0 0.66 0 1 0 C1 3.3 1 6.6 1 10 C-0.32 10.33 -1.64 10.66 -3 11 C-5.09351488 12.68107344 -5.09351488 12.68107344 -7.109375 14.81640625 C-8.24052734 15.96206055 -8.24052734 15.96206055 -9.39453125 17.13085938 C-10.17183594 17.93330078 -10.94914063 18.73574219 -11.75 19.5625 C-12.54277344 20.36880859 -13.33554688 21.17511719 -14.15234375 22.00585938 C-16.10847046 23.99733778 -18.05725719 25.99547721 -20 28 C-20.66 27.67 -21.32 27.34 -22 27 C-21.10692139 26.14619751 -21.10692139 26.14619751 -20.19580078 25.27514648 C-17.97527073 23.14025492 -15.76654083 20.99399493 -13.56494141 18.83959961 C-12.14703529 17.4589562 -10.71617577 16.09165622 -9.28515625 14.72460938 C-2.71156153 8.40291666 -2.71156153 8.40291666 0 0 Z " fill="#2B7206" transform="translate(244,18)"/>
<path d="M0 0 C3.18673962 1.40301147 5.32221406 3.07765071 7.75 5.5625 C8.67039062 6.49255859 8.67039062 6.49255859 9.609375 7.44140625 C11 9 11 9 11 10 C7.75 10.3125 7.75 10.3125 4 10 C1.15751732 7.449054 0.08981203 6.0103853 -0.25 2.1875 C-0.1675 1.465625 -0.085 0.74375 0 0 Z " fill="#71C134" transform="translate(116,129)"/>
<path d="M0 0 C0.33 0 0.66 0 1 0 C1 3.3 1 6.6 1 10 C0.01 10.495 0.01 10.495 -1 11 C-2.60080151 6.99799622 -1.29279692 3.95443764 0 0 Z " fill="#337F06" transform="translate(244,18)"/>
</svg>
